<svg width="2008" height="550" viewBox="0 0 2008 550" fill="none" xmlns="http://www.w3.org/2000/svg">
<path d="M21.5316 542C15.9393 542 11.1096 539.967 7.04254 535.899C2.97544 531.832 0.941895 527.003 0.941895 521.41V28.7832C0.941895 23.191 2.97544 18.3613 7.04254 14.2942C11.1096 10.2271 15.9393 8.19356 21.5316 8.19356H174.048C179.64 8.19356 184.47 10.2271 188.537 14.2942C192.604 18.3613 194.637 23.191 194.637 28.7832V385.671H405.872C411.464 385.671 416.294 387.705 420.361 391.772C424.428 395.839 426.462 400.668 426.462 406.261V521.41C426.462 527.003 424.428 531.832 420.361 535.899C416.294 539.967 411.464 542 405.872 542H21.5316Z" fill="#262626"/>
<path d="M679.746 549.626C629.924 549.626 586.203 542 548.582 526.748C511.47 511.497 481.983 488.619 460.123 458.116C438.77 427.105 427.078 388.975 425.044 343.729C424.536 322.885 424.281 300.77 424.281 277.385C424.281 253.999 424.536 231.376 425.044 209.515C427.078 164.777 438.77 126.902 460.123 95.8903C481.475 64.8787 510.961 41.2387 548.582 24.9703C586.203 8.70195 629.924 0.567749 679.746 0.567749C729.568 0.567749 773.289 8.70195 810.91 24.9703C848.53 41.2387 878.017 64.8787 899.369 95.8903C921.23 126.902 932.923 164.777 934.448 209.515C935.465 231.376 935.973 253.999 935.973 277.385C935.973 300.77 935.465 322.885 934.448 343.729C932.414 388.975 920.467 427.105 898.607 458.116C877.254 488.619 847.768 511.497 810.147 526.748C773.035 542 729.568 549.626 679.746 549.626ZM679.746 400.923C696.523 400.923 709.995 396.093 720.163 386.434C730.33 376.266 735.668 360.506 736.177 339.154C737.194 317.293 737.702 295.686 737.702 274.334C737.702 252.982 737.194 231.884 736.177 211.04C735.668 196.805 732.872 185.112 727.788 175.961C723.213 166.81 716.858 160.201 708.724 156.134C700.59 151.559 690.93 149.271 679.746 149.271C669.07 149.271 659.41 151.559 650.768 156.134C642.634 160.201 636.025 166.81 630.941 175.961C626.365 185.112 623.823 196.805 623.315 211.04C622.807 231.884 622.552 252.982 622.552 274.334C622.552 295.686 622.807 317.293 623.315 339.154C624.332 360.506 629.67 376.266 639.329 386.434C649.497 396.093 662.969 400.923 679.746 400.923Z" fill="#262626"/>
<path d="M1213.7 549.626C1162.35 549.626 1117.86 542 1080.24 526.748C1042.62 511.497 1013.14 488.365 991.784 457.354C970.432 426.342 958.739 387.196 956.706 339.916C956.197 319.072 955.943 296.449 955.943 272.046C955.943 247.644 956.197 224.512 956.706 202.652C958.739 157.405 970.432 120.039 991.784 90.5523C1013.65 60.5575 1043.64 38.1884 1081.77 23.4452C1119.9 8.19358 1163.87 0.567749 1213.7 0.567749C1253.86 0.567749 1289.95 5.14323 1321.98 14.2942C1354.01 22.9368 1381.46 35.1381 1404.34 50.8981C1427.22 66.6581 1444.76 84.96 1456.96 105.804C1469.16 126.139 1475.51 147.746 1476.02 170.623C1476.02 175.199 1474.24 179.266 1470.69 182.825C1467.63 185.875 1463.82 187.4 1459.25 187.4H1290.72C1285.12 187.4 1280.55 186.637 1276.99 185.112C1273.94 183.587 1271.14 181.554 1268.6 179.012C1266.57 176.47 1263.52 172.911 1259.45 168.336C1255.89 163.252 1250.55 158.93 1243.44 155.372C1236.32 151.305 1226.4 149.271 1213.7 149.271C1194.88 149.271 1180.65 154.101 1170.99 163.76C1161.33 172.911 1155.99 187.146 1154.98 206.465C1153.45 248.661 1153.45 291.874 1154.98 336.103C1155.99 358.981 1161.84 375.503 1172.52 385.671C1183.19 395.839 1197.94 400.923 1216.75 400.923C1229.46 400.923 1240.64 399.143 1250.3 395.585C1259.96 392.026 1267.58 386.179 1273.18 378.045C1278.77 369.911 1281.57 359.489 1281.57 346.779V346.017H1245.72C1240.13 346.017 1235.3 343.983 1231.23 339.916C1227.17 335.849 1225.13 331.019 1225.13 325.427V240.781C1225.13 235.188 1227.17 230.359 1231.23 226.292C1235.3 222.225 1240.13 220.191 1245.72 220.191H1455.43C1461.03 220.191 1465.86 222.225 1469.92 226.292C1473.99 230.359 1476.02 235.188 1476.02 240.781V339.916C1476.02 385.671 1464.84 424.054 1442.47 455.066C1420.1 486.077 1389.09 509.717 1349.43 525.986C1310.29 541.746 1265.04 549.626 1213.7 549.626Z" fill="#262626"/>
<path d="M1751.26 549.626C1701.44 549.626 1657.72 542 1620.1 526.748C1582.98 511.497 1553.5 488.619 1531.64 458.116C1510.29 427.105 1498.59 388.975 1496.56 343.729C1496.05 322.885 1495.8 300.77 1495.8 277.385C1495.8 253.999 1496.05 231.376 1496.56 209.515C1498.59 164.777 1510.29 126.902 1531.64 95.8903C1552.99 64.8787 1582.48 41.2387 1620.1 24.9703C1657.72 8.70195 1701.44 0.567749 1751.26 0.567749C1801.08 0.567749 1844.8 8.70195 1882.42 24.9703C1920.05 41.2387 1949.53 64.8787 1970.88 95.8903C1992.74 126.902 2004.44 164.777 2005.96 209.515C2006.98 231.376 2007.49 253.999 2007.49 277.385C2007.49 300.77 2006.98 322.885 2005.96 343.729C2003.93 388.975 1991.98 427.105 1970.12 458.116C1948.77 488.619 1919.28 511.497 1881.66 526.748C1844.55 542 1801.08 549.626 1751.26 549.626ZM1751.26 400.923C1768.04 400.923 1781.51 396.093 1791.68 386.434C1801.85 376.266 1807.18 360.506 1807.69 339.154C1808.71 317.293 1809.22 295.686 1809.22 274.334C1809.22 252.982 1808.71 231.884 1807.69 211.04C1807.18 196.805 1804.39 185.112 1799.3 175.961C1794.73 166.81 1788.37 160.201 1780.24 156.134C1772.1 151.559 1762.45 149.271 1751.26 149.271C1740.58 149.271 1730.93 151.559 1722.28 156.134C1714.15 160.201 1707.54 166.81 1702.46 175.961C1697.88 185.112 1695.34 196.805 1694.83 211.04C1694.32 231.884 1694.07 252.982 1694.07 274.334C1694.07 295.686 1694.32 317.293 1694.83 339.154C1695.85 360.506 1701.18 376.266 1710.84 386.434C1721.01 396.093 1734.48 400.923 1751.26 400.923Z" fill="#262626"/>
</svg>
